<svg id="Capa_1" data-name="Capa 1" xmlns="http://www.w3.org/2000/svg" viewBox="0 0 660.47244 198.4252">
  <defs>
    <style>
      .cls-1 {
        fill: #73a445;
      }

      .cls-2 {
        fill: #4469a7;
      }

      .cls-3 {
        fill: #903f84;
      }

      .cls-4 {
        fill: #b81e24;
      }

      .cls-5 {
        fill: #d3902c;
      }

      .cls-6 {
        fill: #e7de3c;
      }

      .cls-7 {
        fill: none;
      }
    </style>
  </defs>
  <g>
    <g>
      <path class="cls-1" d="M129.63618,163.749V122.80169a6.36439,6.36439,0,0,0-.52686-2.59912,7.85772,7.85772,0,0,0-1.43945-2.17725,8.31308,8.31308,0,0,0-2.10742-1.40478,6.036,6.036,0,0,0-2.59863-.56153,7.13566,7.13566,0,0,0-2.63379.59668,7.7589,7.7589,0,0,0-2.07178,1.36963,8.77661,8.77661,0,0,0-1.36963,2.17725,6.36455,6.36455,0,0,0-.52685,2.59912V163.749h-9.48194V122.80169a9.5534,9.5534,0,0,1,.59717-3.40674,7.5168,7.5168,0,0,1,1.7207-2.7041,9.41369,9.41369,0,0,1,2.73926-1.791,8.24,8.24,0,0,1,3.30078-.667h7.58545a8.24912,8.24912,0,0,1,3.30127.667,9.45282,9.45282,0,0,1,2.73926,1.791,8.89723,8.89723,0,0,1,1.82617,2.7041,8.30933,8.30933,0,0,1,.70215,3.40674V163.749Z"/>
      <path class="cls-1" d="M161.0312,114.23284h1.89648v40.94727a8.666,8.666,0,0,1-.66748,3.40674,7.87411,7.87411,0,0,1-1.86084,2.7041,9.55439,9.55439,0,0,1-2.7041,1.791,8.17757,8.17757,0,0,1-3.33642.667H146.8437a8.24215,8.24215,0,0,1-3.30127-.667,9.387,9.387,0,0,1-2.73926-1.791,8.7644,8.7644,0,0,1-2.52832-6.11084V114.23284h9.34131v40.94727a6.36183,6.36183,0,0,0,.52686,2.59863,7.79394,7.79394,0,0,0,1.43994,2.17774,7.31139,7.31139,0,0,0,2.00146,1.40429,5.62836,5.62836,0,0,0,2.49365.562,6.32689,6.32689,0,0,0,4.8462-2.03662,8.27017,8.27017,0,0,0,1.40478-2.10742,6.02859,6.02859,0,0,0,.562-2.59863Z"/>
      <path class="cls-1" d="M186.31587,116.059v47.69h-8.49854v-47.69H169.8105v-1.82617h24.65283V116.059Z"/>
      <path class="cls-1" d="M222.90815,138.88567q-.5625.49219-1.05322.91309-.49219.42114-.63232.56152a7.82409,7.82409,0,0,0,.91308.7378,8.7187,8.7187,0,0,1,1.05371.87793,7.98222,7.98222,0,0,1,1.86133,2.66894,8.42307,8.42307,0,0,1,.667,3.3711V163.749h-1.89648V148.01605a6.61926,6.61926,0,0,0-.52637-2.63379,7.48193,7.48193,0,0,0-1.36963-2.14209,8.77014,8.77014,0,0,0-2.17773-1.36963,6.37015,6.37015,0,0,0-2.59864-.52686h-6.602V163.749H201.1352V122.16937a7.42989,7.42989,0,0,1,2.17725-5.47852,8.5074,8.5074,0,0,1,2.66894-1.791,8.24235,8.24235,0,0,1,3.30127-.667h7.58545a8.35363,8.35363,0,0,1,3.40625.667,8.63925,8.63925,0,0,1,2.63379,1.791,7.87315,7.87315,0,0,1,1.86133,2.7041,8.66967,8.66967,0,0,1,.66748,3.40674v10.04346a8.49032,8.49032,0,0,1-.66748,3.33642A7.86841,7.86841,0,0,1,222.90815,138.88567Zm-5.75928.56153a6.37005,6.37005,0,0,0,2.59864-.52637,7.84373,7.84373,0,0,0,2.17773-1.43994,6.63282,6.63282,0,0,0,1.36963-2.03711,6.36339,6.36339,0,0,0,.52637-2.59863V122.80169a6.37233,6.37233,0,0,0-.52637-2.59912,7.87035,7.87035,0,0,0-1.43994-2.17725,8.31326,8.31326,0,0,0-2.10742-1.40478,6.036,6.036,0,0,0-2.59864-.56153,7.66831,7.66831,0,0,0-2.52832.56153,6.39453,6.39453,0,0,0-2.10693,1.40478,9.6316,9.6316,0,0,0-1.40478,2.17725,6.01726,6.01726,0,0,0-.562,2.59912V139.4472Z"/>
      <path class="cls-1" d="M232.4604,163.749V114.23284H241.872V163.749Z"/>
      <path class="cls-2" d="M270.87934,163.749V122.80169a6.37232,6.37232,0,0,0-.52636-2.59912,7.87061,7.87061,0,0,0-1.44-2.17725,8.31308,8.31308,0,0,0-2.10742-1.40478,5.876,5.876,0,0,0-2.52832-.56153,7.13566,7.13566,0,0,0-2.63379.59668,7.75885,7.75885,0,0,0-2.07177,1.36963,9.6313,9.6313,0,0,0-1.40479,2.17725,6.01725,6.01725,0,0,0-.562,2.59912V163.749h-9.41162V122.80169a10.0769,10.0769,0,0,1,.562-3.40674,6.75686,6.75686,0,0,1,1.75586-2.7041,8.5018,8.5018,0,0,1,2.66894-1.791,8.24064,8.24064,0,0,1,3.30127-.667h7.58545a8.17541,8.17541,0,0,1,3.33594.667,9.59622,9.59622,0,0,1,2.7041,1.791,12.31235,12.31235,0,0,1,1.54541,2.10693,10.455,10.455,0,0,1,1.61524-2.10693,8.61554,8.61554,0,0,1,2.63379-1.791,8.5891,8.5891,0,0,1,6.6372,0,9.4397,9.4397,0,0,1,2.73926,1.791,8.15151,8.15151,0,0,1,2.4585,6.11084V163.749h-1.82617V122.80169a6.03844,6.03844,0,0,0-.562-2.59912,9.682,9.682,0,0,0-1.40478-2.17725,8.31048,8.31048,0,0,0-2.10694-1.40478,6.03748,6.03748,0,0,0-2.59863-.56153,6.31388,6.31388,0,0,0-4.706,2.03663,6.38946,6.38946,0,0,0-1.40479,2.10693,6.75762,6.75762,0,0,0-.4917,2.59912V163.749Z"/>
      <path class="cls-2" d="M319.41157,163.81927H294.82905V114.23284h23.38818V116.059H303.04634V139.4472h7.58544v1.89648h-7.58544v20.36865h16.15429v2.10694Z"/>
      <path class="cls-2" d="M340.41108,116.059v47.69h-8.49853v-47.69h-8.00684v-1.82617h24.65283V116.059Z"/>
      <path class="cls-2" d="M378.1977,163.749V149.98284H364.9228V163.749h-9.48144V122.80169a9.55343,9.55343,0,0,1,.59667-3.40674,7.52354,7.52354,0,0,1,1.72071-2.7041,9.42661,9.42661,0,0,1,2.73926-1.791,8.24228,8.24228,0,0,1,3.30127-.667h7.58544a8.25079,8.25079,0,0,1,3.30127.667,9.44371,9.44371,0,0,1,2.73877,1.791,8.88845,8.88845,0,0,1,1.82618,2.7041,8.30187,8.30187,0,0,1,.70263,3.40674V163.749Zm-13.2749-15.6626h13.2749V122.80169a6.37258,6.37258,0,0,0-.52685-2.59912,7.85967,7.85967,0,0,0-1.43994-2.17725,8.31048,8.31048,0,0,0-2.10694-1.40478,6.03751,6.03751,0,0,0-2.59863-.56153,7.13566,7.13566,0,0,0-2.63379.59668,7.75374,7.75374,0,0,0-2.07227,1.36963,8.77658,8.77658,0,0,0-1.36962,2.17725,6.37243,6.37243,0,0,0-.52686,2.59912Z"/>
      <path class="cls-2" d="M411.48921,155.88274a8.56947,8.56947,0,0,1-.77246,2.94971,8.80206,8.80206,0,0,1-1.75586,2.4585,9.55458,9.55458,0,0,1-2.70411,1.791,8.17757,8.17757,0,0,1-3.33642.667h-7.51514a8.24215,8.24215,0,0,1-3.30127-.667,9.387,9.387,0,0,1-2.73926-1.791,8.1463,8.1463,0,0,1-2.458-6.11084V122.80169a5.25215,5.25215,0,0,1-.07032-.9834,7.01558,7.01558,0,0,1,2.17725-5.12744,8.50745,8.50745,0,0,1,2.66895-1.791,8.41709,8.41709,0,0,1,3.37158-.667h7.58545a8.17539,8.17539,0,0,1,3.33593.667,8.63925,8.63925,0,0,1,2.63379,1.791,7.87315,7.87315,0,0,1,1.86133,2.7041,8.66949,8.66949,0,0,1,.66748,3.40674v9.06006a8.49014,8.49014,0,0,1-.66748,3.33642,7.86854,7.86854,0,0,1-1.86133,2.70411,11.09482,11.09482,0,0,1-.98291.87793,5.24623,5.24623,0,0,1-1.124.667,8.66471,8.66471,0,0,1,1.124.73779q.49.38672.98291.80762a11.69585,11.69585,0,0,1,1.86133,2.458,7.10693,7.10693,0,0,1,.94824,2.87988Zm-8.84961-17.34863a6.09572,6.09572,0,0,0,2.56347-.56152,8.09088,8.09088,0,0,0,2.14209-1.40479,6.38961,6.38961,0,0,0,1.89649-4.70605v-9.06006a6.50666,6.50666,0,0,0-1.9668-4.77637,7.03875,7.03875,0,0,0-2.07178-1.40478,6.11057,6.11057,0,0,0-2.56347-.56153,7.13566,7.13566,0,0,0-2.63379.59668,7.75374,7.75374,0,0,0-2.07227,1.36963,6.78629,6.78629,0,0,0-1.89648,4.77637v15.73242Zm.07031,1.89649h-6.53223v14.74951a6.36183,6.36183,0,0,0,.52686,2.59863,7.79416,7.79416,0,0,0,1.43994,2.17774,7.31139,7.31139,0,0,0,2.00146,1.40429,5.62837,5.62837,0,0,0,2.49366.562,6.2484,6.2484,0,0,0,2.63379-.562,10.89547,10.89547,0,0,0,2.28271-1.40429,10.69179,10.69179,0,0,0,1.29932-1.7212,4.09308,4.09308,0,0,0,.52685-2.14209v-9.271a5.79522,5.79522,0,0,0-.52685-2.42334,6.74623,6.74623,0,0,0-1.36963-2.00147A6.50636,6.50636,0,0,0,402.70991,140.4306Z"/>
      <path class="cls-2" d="M418.23139,122.52044a8.19819,8.19819,0,0,1,.63233-3.1958,8.11624,8.11624,0,0,1,1.75586-2.63379,9.41356,9.41356,0,0,1,2.73926-1.791,8.23993,8.23993,0,0,1,3.30078-.667h7.51513a8.42562,8.42562,0,0,1,3.37159.667,9.45277,9.45277,0,0,1,2.73925,1.791,8.4172,8.4172,0,0,1,1.791,2.7041,8.67812,8.67812,0,0,1,.667,3.40674v32.37842a8.67467,8.67467,0,0,1-.667,3.40674,8.412,8.412,0,0,1-1.791,2.7041,9.41282,9.41282,0,0,1-2.73925,1.791,8.42546,8.42546,0,0,1-3.37159.667h-7.51513a8.23977,8.23977,0,0,1-3.30078-.667,9.37394,9.37394,0,0,1-2.73926-1.791,8.26973,8.26973,0,0,1-2.38819-6.11084Zm22.75635.28125a6.36455,6.36455,0,0,0-.52685-2.59912,7.858,7.858,0,0,0-1.43946-2.17725,8.31308,8.31308,0,0,0-2.10742-1.40478,6.036,6.036,0,0,0-2.59863-.56153,7.13566,7.13566,0,0,0-2.63379.59668,7.7589,7.7589,0,0,0-2.07178,1.36963,8.7769,8.7769,0,0,0-1.36963,2.17725,6.36455,6.36455,0,0,0-.52685,2.59912v32.37842a6.354,6.354,0,0,0,.52685,2.59863,8.73529,8.73529,0,0,0,1.36963,2.17774,8.48141,8.48141,0,0,0,2.07178,1.40429,5.62626,5.62626,0,0,0,2.49316.562,6.41413,6.41413,0,0,0,2.70411-.562,7.27987,7.27987,0,0,0,2.14257-1.47461,6.87279,6.87279,0,0,0,1.43946-2.10742,6.354,6.354,0,0,0,.52685-2.59863Z"/>
      <path class="cls-2" d="M474.41987,163.67864H449.83735q0-11.51807-.03516-23.84521-.03661-12.32593-.03515-25.46045H458.125v47.269h16.1543V163.749Z"/>
      <path class="cls-2" d="M481.23237,122.52044a8.19836,8.19836,0,0,1,.63232-3.1958,8.11624,8.11624,0,0,1,1.75586-2.63379,9.41369,9.41369,0,0,1,2.73926-1.791,8.24,8.24,0,0,1,3.30078-.667h7.51514a8.42554,8.42554,0,0,1,3.37158.667,9.45282,9.45282,0,0,1,2.73926,1.791,8.41736,8.41736,0,0,1,1.791,2.7041,8.67812,8.67812,0,0,1,.667,3.40674v32.37842a8.67467,8.67467,0,0,1-.667,3.40674,8.41213,8.41213,0,0,1-1.791,2.7041,9.41286,9.41286,0,0,1-2.73926,1.791,8.42537,8.42537,0,0,1-3.37158.667h-7.51514a8.2398,8.2398,0,0,1-3.30078-.667,9.37407,9.37407,0,0,1-2.73926-1.791,8.26976,8.26976,0,0,1-2.38818-6.11084Zm22.75635.28125a6.36439,6.36439,0,0,0-.52686-2.59912,7.85772,7.85772,0,0,0-1.43945-2.17725,8.31326,8.31326,0,0,0-2.10742-1.40478,6.036,6.036,0,0,0-2.59863-.56153,7.13566,7.13566,0,0,0-2.63379.59668,7.7589,7.7589,0,0,0-2.07178,1.36963,8.77661,8.77661,0,0,0-1.36963,2.17725,6.36456,6.36456,0,0,0-.52686,2.59912v32.37842a6.354,6.354,0,0,0,.52686,2.59863,8.735,8.735,0,0,0,1.36963,2.17774,8.48141,8.48141,0,0,0,2.07178,1.40429,5.62623,5.62623,0,0,0,2.49316.562,6.414,6.414,0,0,0,2.7041-.562,7.27992,7.27992,0,0,0,2.14258-1.47461,6.87258,6.87258,0,0,0,1.43945-2.10742,6.35382,6.35382,0,0,0,.52686-2.59863Z"/>
      <path class="cls-2" d="M535.31343,163.749V122.80169a6.37233,6.37233,0,0,0-.52637-2.59912,7.87035,7.87035,0,0,0-1.43994-2.17725,8.31332,8.31332,0,0,0-2.10743-1.40478,5.876,5.876,0,0,0-2.52832-.56153,7.13565,7.13565,0,0,0-2.63378.59668,7.75874,7.75874,0,0,0-2.07178,1.36963,9.632,9.632,0,0,0-1.40479,2.17725,6.01725,6.01725,0,0,0-.562,2.59912V163.749h-9.41162V122.80169a10.0769,10.0769,0,0,1,.562-3.40674,6.75707,6.75707,0,0,1,1.75586-2.7041,8.50184,8.50184,0,0,1,2.66895-1.791,8.24057,8.24057,0,0,1,3.30127-.667h7.58545a8.17539,8.17539,0,0,1,3.33593.667,9.59622,9.59622,0,0,1,2.7041,1.791,12.31182,12.31182,0,0,1,1.54541,2.10693,10.455,10.455,0,0,1,1.61524-2.10693,8.61554,8.61554,0,0,1,2.63379-1.791,8.58913,8.58913,0,0,1,6.63721,0,9.43965,9.43965,0,0,1,2.73925,1.791,8.15151,8.15151,0,0,1,2.4585,6.11084V163.749h-1.82617V122.80169a6.03858,6.03858,0,0,0-.562-2.59912,9.6824,9.6824,0,0,0-1.40479-2.17725,8.31042,8.31042,0,0,0-2.10693-1.40478,6.03756,6.03756,0,0,0-2.59864-.56153,6.31389,6.31389,0,0,0-4.70605,2.03663,6.38946,6.38946,0,0,0-1.40479,2.10693,6.75762,6.75762,0,0,0-.4917,2.59912V163.749Z"/>
      <path class="cls-2" d="M559.12251,163.749V114.23284h9.41162V163.749Z"/>
      <path class="cls-2" d="M575.06636,155.32073V121.8886a7.09483,7.09483,0,0,1,2.17724-5.19775,8.50184,8.50184,0,0,1,2.66895-1.791,8.23993,8.23993,0,0,1,3.30078-.667h7.58545a8.50213,8.50213,0,0,1,3.33642.667,8.41736,8.41736,0,0,1,2.7041,1.791,8.89707,8.89707,0,0,1,1.82618,2.7041,8.30949,8.30949,0,0,1,.70214,3.40674v8.7793h-1.896v-8.7793a6.03858,6.03858,0,0,0-.562-2.59912,8.57436,8.57436,0,0,0-1.4751-2.17725,8.31042,8.31042,0,0,0-2.10693-1.40478,5.87975,5.87975,0,0,0-2.52881-.56153,7.28216,7.28216,0,0,0-2.59864.59668,6.61355,6.61355,0,0,0-2.03662,1.36963,7.82734,7.82734,0,0,0-1.43994,2.17725,6.37258,6.37258,0,0,0-.52685,2.59912v32.37842a6.362,6.362,0,0,0,.52685,2.59863,7.79438,7.79438,0,0,0,1.43994,2.17774,7.31144,7.31144,0,0,0,2.00147,1.40429,5.62833,5.62833,0,0,0,2.49365.562,6.32687,6.32687,0,0,0,4.84619-2.03662,8.2702,8.2702,0,0,0,1.40479-2.10742,6.02859,6.02859,0,0,0,.562-2.59863V146.3305h1.896v8.84961a8.3062,8.3062,0,0,1-.70214,3.40674,8.8912,8.8912,0,0,1-1.82618,2.7041,8.38544,8.38544,0,0,1-2.7041,1.791,8.502,8.502,0,0,1-3.33642.667h-7.58545a8.23977,8.23977,0,0,1-3.30078-.667,8.46876,8.46876,0,0,1-2.66895-1.791,5.89411,5.89411,0,0,1-1.65088-2.66895A13.45543,13.45543,0,0,1,575.06636,155.32073Z"/>
      <path class="cls-2" d="M608.91987,146.3305v8.84961a6.78251,6.78251,0,0,0,1.89649,4.77637,7.00626,7.00626,0,0,0,2.07177,1.40429,6.08071,6.08071,0,0,0,2.56348.562h.28125a6.3949,6.3949,0,0,0,2.38769-.59668,8.02117,8.02117,0,0,0,2.03711-1.36962,6.505,6.505,0,0,0,1.96631-4.77637v-7.44483a6.05682,6.05682,0,0,0-1.96631-4.63574,6.655,6.655,0,0,0-2.03711-1.40478,6.88288,6.88288,0,0,0-2.38769-.56153h-.28125a8.2153,8.2153,0,0,1-3.30078-.66748,8.45511,8.45511,0,0,1-2.66895-1.791,9.83363,9.83363,0,0,1-2.73926-6.11035v-10.044a8.22864,8.22864,0,0,1,2.3877-5.82959,9.42661,9.42661,0,0,1,2.73926-1.791,8.24228,8.24228,0,0,1,3.30127-.667H622.686a8.17775,8.17775,0,0,1,3.33643.667,9.59622,9.59622,0,0,1,2.7041,1.791,7.87867,7.87867,0,0,1,1.86084,2.7041,8.66949,8.66949,0,0,1,.66748,3.40674v8.7793h-1.89648v-8.7793a6.36456,6.36456,0,0,0-.52686-2.59912,7.85772,7.85772,0,0,0-1.43945-2.17725,8.31326,8.31326,0,0,0-2.10742-1.40478,6.036,6.036,0,0,0-2.59864-.56153,6.841,6.841,0,0,0-2.59863.59668,7.96226,7.96226,0,0,0-2.03711,1.36963,9.647,9.647,0,0,0-1.4043,2.17725,6.0174,6.0174,0,0,0-.562,2.59912v5.26758a6.01059,6.01059,0,0,0,.562,2.59863,8.24064,8.24064,0,0,0,1.4043,2.10693,9.65189,9.65189,0,0,0,2.03711,1.43995,5.15034,5.15034,0,0,0,2.458.59716,8.38616,8.38616,0,0,1,6.18115,2.458,7.974,7.974,0,0,1,1.86084,2.66895,8.24261,8.24261,0,0,1,.66748,3.30127v11.93994a8.666,8.666,0,0,1-.66748,3.40674,7.87411,7.87411,0,0,1-1.86084,2.7041,9.55439,9.55439,0,0,1-2.7041,1.791,8.17759,8.17759,0,0,1-3.33643.667h-7.51513a8.24212,8.24212,0,0,1-3.30127-.667,9.38688,9.38688,0,0,1-2.73926-1.791,8.76436,8.76436,0,0,1-2.52832-6.11084V146.3305Z"/>
    </g>
    <g>
      <path class="cls-1" d="M132.34907,98.7138a8.56931,8.56931,0,0,1-.77246,2.94971,8.80181,8.80181,0,0,1-1.75586,2.45849,9.55478,9.55478,0,0,1-2.7041,1.791,8.17775,8.17775,0,0,1-3.33643.667h-7.51513a8.24228,8.24228,0,0,1-3.30127-.667,9.38711,9.38711,0,0,1-2.73926-1.791,8.14631,8.14631,0,0,1-2.458-6.11084V65.63274a5.253,5.253,0,0,1-.07031-.98339,7.01559,7.01559,0,0,1,2.17724-5.12745,8.50754,8.50754,0,0,1,2.66895-1.791,8.417,8.417,0,0,1,3.37158-.667h7.58545a8.17527,8.17527,0,0,1,3.33594.667,8.63922,8.63922,0,0,1,2.63379,1.791,7.87343,7.87343,0,0,1,1.86133,2.70411,8.66965,8.66965,0,0,1,.66748,3.40673V74.6928a8.49036,8.49036,0,0,1-.66748,3.33643,7.86864,7.86864,0,0,1-1.86133,2.7041,11.09465,11.09465,0,0,1-.98291.87793,5.24614,5.24614,0,0,1-1.124.667,8.66659,8.66659,0,0,1,1.124.7378q.49.38671.98291.80761a11.69679,11.69679,0,0,1,1.86133,2.458,7.10723,7.10723,0,0,1,.94824,2.87988Zm-8.84961-17.34863a6.09581,6.09581,0,0,0,2.56348-.56153,8.09117,8.09117,0,0,0,2.14209-1.40478,6.38961,6.38961,0,0,0,1.89648-4.70606V65.63274a6.50664,6.50664,0,0,0-1.9668-4.77636,7.03886,7.03886,0,0,0-2.07177-1.40479,6.11079,6.11079,0,0,0-2.56348-.56152,7.13526,7.13526,0,0,0-2.63379.59668,7.75345,7.75345,0,0,0-2.07226,1.36963,6.78626,6.78626,0,0,0-1.89649,4.77636V81.36517Zm.07031,1.89648h-6.53222V98.01116a6.362,6.362,0,0,0,.52685,2.59864,7.79433,7.79433,0,0,0,1.43994,2.17773,7.31184,7.31184,0,0,0,2.00147,1.4043,5.62847,5.62847,0,0,0,2.49365.562,6.24849,6.24849,0,0,0,2.63379-.562,10.89542,10.89542,0,0,0,2.28271-1.4043,10.69114,10.69114,0,0,0,1.29932-1.72119,4.093,4.093,0,0,0,.52686-2.14209v-9.271a5.79511,5.79511,0,0,0-.52686-2.42334,6.746,6.746,0,0,0-1.36963-2.00146A6.50633,6.50633,0,0,0,123.56977,83.26165Z"/>
      <path class="cls-1" d="M139.09126,106.58V57.0639h9.41162V106.58Z"/>
      <path class="cls-1" d="M154.82417,65.35149a8.19843,8.19843,0,0,1,.63232-3.1958,8.11645,8.11645,0,0,1,1.75586-2.63379,9.41366,9.41366,0,0,1,2.73926-1.791,8.23979,8.23979,0,0,1,3.30078-.667h7.51514a8.4254,8.4254,0,0,1,3.37158.667,9.45279,9.45279,0,0,1,2.73926,1.791,8.41749,8.41749,0,0,1,1.791,2.70411,8.67793,8.67793,0,0,1,.667,3.40673V98.01116a8.67449,8.67449,0,0,1-.667,3.40674,8.412,8.412,0,0,1-1.791,2.7041,9.4131,9.4131,0,0,1-2.73926,1.791,8.42558,8.42558,0,0,1-3.37158.667h-7.51514a8.24,8.24,0,0,1-3.30078-.667,9.3743,9.3743,0,0,1-2.73926-1.791,8.26976,8.26976,0,0,1-2.38818-6.11084Zm22.75635.28125a6.36459,6.36459,0,0,0-.52686-2.59912,7.85767,7.85767,0,0,0-1.43945-2.17724,8.31335,8.31335,0,0,0-2.10743-1.40479,6.03605,6.03605,0,0,0-2.59863-.56152,7.13526,7.13526,0,0,0-2.63379.59668,7.75861,7.75861,0,0,0-2.07177,1.36963,8.77626,8.77626,0,0,0-1.36963,2.17724,6.36443,6.36443,0,0,0-.52686,2.59912V98.01116a6.35387,6.35387,0,0,0,.52686,2.59864,8.73466,8.73466,0,0,0,1.36963,2.17773,8.48167,8.48167,0,0,0,2.07177,1.4043,5.62641,5.62641,0,0,0,2.49317.562,6.41424,6.41424,0,0,0,2.7041-.562,7.2803,7.2803,0,0,0,2.14258-1.47461,6.8727,6.8727,0,0,0,1.43945-2.10742,6.354,6.354,0,0,0,.52686-2.59864Z"/>
      <path class="cls-1" d="M208.90522,106.58V65.63274a6.37235,6.37235,0,0,0-.52636-2.59912,7.87056,7.87056,0,0,0-1.44-2.17724,8.31311,8.31311,0,0,0-2.10742-1.40479,5.87612,5.87612,0,0,0-2.52832-.56152,7.13526,7.13526,0,0,0-2.63379.59668,7.75861,7.75861,0,0,0-2.07177,1.36963,9.63123,9.63123,0,0,0-1.40479,2.17724,6.01728,6.01728,0,0,0-.562,2.59912V106.58h-9.41162V65.63274a10.07688,10.07688,0,0,1,.562-3.40673,6.757,6.757,0,0,1,1.75586-2.70411,8.50177,8.50177,0,0,1,2.66894-1.791,8.24047,8.24047,0,0,1,3.30127-.667h7.58545a8.17524,8.17524,0,0,1,3.33594.667,9.59619,9.59619,0,0,1,2.7041,1.791,12.31244,12.31244,0,0,1,1.54541,2.10694,10.455,10.455,0,0,1,1.61524-2.10694,8.61559,8.61559,0,0,1,2.63378-1.791,8.58913,8.58913,0,0,1,6.63721,0,9.43967,9.43967,0,0,1,2.73926,1.791,8.15152,8.15152,0,0,1,2.4585,6.11084V106.58H223.936V65.63274a6.03847,6.03847,0,0,0-.562-2.59912,9.6823,9.6823,0,0,0-1.40478-2.17724,8.31051,8.31051,0,0,0-2.10694-1.40479,6.03762,6.03762,0,0,0-2.59863-.56152,6.3139,6.3139,0,0,0-4.70605,2.03662,6.38957,6.38957,0,0,0-1.40479,2.10693,6.75765,6.75765,0,0,0-.4917,2.59912V106.58Z"/>
      <path class="cls-1" d="M255.68159,106.58V92.8139h-13.2749V106.58h-9.48145V65.63274a9.5532,9.5532,0,0,1,.59668-3.40673,7.52351,7.52351,0,0,1,1.7207-2.70411,9.42671,9.42671,0,0,1,2.73926-1.791,8.24214,8.24214,0,0,1,3.30127-.667h7.58545a8.25066,8.25066,0,0,1,3.30127.667,9.44382,9.44382,0,0,1,2.73877,1.791,8.88842,8.88842,0,0,1,1.82617,2.70411,8.3017,8.3017,0,0,1,.70264,3.40673V106.58Zm-13.2749-15.6626h13.2749V65.63274a6.37246,6.37246,0,0,0-.52686-2.59912,7.8594,7.8594,0,0,0-1.43994-2.17724,8.31028,8.31028,0,0,0-2.10693-1.40479,6.03768,6.03768,0,0,0-2.59863-.56152,7.13526,7.13526,0,0,0-2.63379.59668,7.7535,7.7535,0,0,0-2.07227,1.36963,8.77684,8.77684,0,0,0-1.36963,2.17724,6.37262,6.37262,0,0,0-.52685,2.59912Z"/>
      <path class="cls-1" d="M286.09321,81.71673q-.5625.49218-1.05322.91308-.49219.42115-.63233.56153a7.8254,7.8254,0,0,0,.91309.73779,8.71963,8.71963,0,0,1,1.05371.87793,7.98226,7.98226,0,0,1,1.86133,2.66895,8.42316,8.42316,0,0,1,.667,3.37109V106.58H287.0063V90.8471a6.61929,6.61929,0,0,0-.52637-2.63379,7.48229,7.48229,0,0,0-1.36963-2.14209,8.7709,8.7709,0,0,0-2.17773-1.36963,6.37031,6.37031,0,0,0-2.59864-.52685h-6.60205V106.58h-9.41162V65.00042a7.42991,7.42991,0,0,1,2.17725-5.47852,8.50738,8.50738,0,0,1,2.66894-1.791,8.24214,8.24214,0,0,1,3.30127-.667h7.58545a8.35346,8.35346,0,0,1,3.40625.667,8.63922,8.63922,0,0,1,2.63379,1.791,7.87329,7.87329,0,0,1,1.86133,2.70411,8.66965,8.66965,0,0,1,.66748,3.40673V75.6762a8.49036,8.49036,0,0,1-.66748,3.33643A7.8686,7.8686,0,0,1,286.09321,81.71673Zm-5.75928.56152a6.37,6.37,0,0,0,2.59864-.52636,7.84413,7.84413,0,0,0,2.17773-1.43995,6.63288,6.63288,0,0,0,1.36963-2.03711,6.36339,6.36339,0,0,0,.52637-2.59863V65.63274a6.37236,6.37236,0,0,0-.52637-2.59912A7.87031,7.87031,0,0,0,285.04,60.85638a8.31347,8.31347,0,0,0-2.10742-1.40479,6.03613,6.03613,0,0,0-2.59864-.56152,7.66805,7.66805,0,0,0-2.52832.56152,6.39471,6.39471,0,0,0-2.10693,1.40479,9.63192,9.63192,0,0,0-1.40479,2.17724,6.01743,6.01743,0,0,0-.562,2.59912V82.27825Z"/>
      <path class="cls-1" d="M315.66255,82.27825a8.66713,8.66713,0,0,1,1.124.7378q.49072.38671.9834.80761a8.778,8.778,0,0,1,1.86084,2.73926,8.24047,8.24047,0,0,1,.66748,3.30078V106.58H318.4018V89.8637a6.36389,6.36389,0,0,0-.52685-2.59863,6.631,6.631,0,0,0-1.36963-2.03662,6.89549,6.89549,0,0,0-2.10693-1.43994,6.20242,6.20242,0,0,0-2.52832-.52686h-8.00684V106.58h-8.21777V57.0639h8.21777V81.36517h7.58545a6.02342,6.02342,0,0,0,2.59863-.56153,9.64846,9.64846,0,0,0,2.17725-1.40478,6.31646,6.31646,0,0,0,1.40478-2.14209,6.85016,6.85016,0,0,0,.4917-2.564V57.0639h1.89649V74.6928a8.49908,8.49908,0,0,1-.66748,3.33643,7.86864,7.86864,0,0,1-1.86133,2.7041,11.02955,11.02955,0,0,1-.9834.87793,5.24237,5.24237,0,0,1-1.12354.667Z"/>
      <path class="cls-1" d="M351.76362,106.65032H327.1811V57.0639h23.38818v1.82617H335.39839V82.27825h7.58545v1.89649h-7.58545v20.36865h16.15429v2.10693Z"/>
      <path class="cls-1" d="M377.89009,81.71673q-.5625.49218-1.05323.91308-.49218.42115-.63232.56153a7.82511,7.82511,0,0,0,.91308.73779,8.71979,8.71979,0,0,1,1.05372.87793,7.98224,7.98224,0,0,1,1.86132,2.66895,8.423,8.423,0,0,1,.667,3.37109V106.58h-1.89649V90.8471a6.61912,6.61912,0,0,0-.52637-2.63379,7.48226,7.48226,0,0,0-1.36962-2.14209,8.77078,8.77078,0,0,0-2.17774-1.36963,6.37029,6.37029,0,0,0-2.59863-.52685h-6.60205V106.58h-9.41162V65.00042a7.4299,7.4299,0,0,1,2.17724-5.47852,8.50742,8.50742,0,0,1,2.66895-1.791,8.24211,8.24211,0,0,1,3.30127-.667h7.58545a8.3535,8.3535,0,0,1,3.40625.667,8.63946,8.63946,0,0,1,2.63379,1.791,7.8734,7.8734,0,0,1,1.86132,2.70411,8.66947,8.66947,0,0,1,.66748,3.40673V75.6762a8.49019,8.49019,0,0,1-.66748,3.33643A7.86871,7.86871,0,0,1,377.89009,81.71673Zm-5.75928.56152a6.37,6.37,0,0,0,2.59863-.52636,7.844,7.844,0,0,0,2.17774-1.43995,6.63285,6.63285,0,0,0,1.36962-2.03711,6.36323,6.36323,0,0,0,.52637-2.59863V65.63274a6.3722,6.3722,0,0,0-.52637-2.59912,7.87031,7.87031,0,0,0-1.43994-2.17724,8.31311,8.31311,0,0,0-2.10742-1.40479,6.03612,6.03612,0,0,0-2.59863-.56152,7.668,7.668,0,0,0-2.52832.56152,6.39465,6.39465,0,0,0-2.10694,1.40479,9.63154,9.63154,0,0,0-1.40478,2.17724,6.01728,6.01728,0,0,0-.562,2.59912V82.27825Z"/>
      <path class="cls-1" d="M389.7602,89.16155v8.84961a6.7825,6.7825,0,0,0,1.89649,4.77637,7.00647,7.00647,0,0,0,2.07177,1.4043,6.08086,6.08086,0,0,0,2.56348.562h.28125a6.39538,6.39538,0,0,0,2.3877-.59668,8.02156,8.02156,0,0,0,2.03711-1.36963,6.505,6.505,0,0,0,1.9663-4.77637V90.56634a6.05685,6.05685,0,0,0-1.9663-4.63574,6.65544,6.65544,0,0,0-2.03711-1.40479,6.88275,6.88275,0,0,0-2.3877-.56152h-.28125a8.21533,8.21533,0,0,1-3.30078-.66748,8.4553,8.4553,0,0,1-2.66895-1.791,9.83357,9.83357,0,0,1-2.73925-6.11035V65.35149a8.198,8.198,0,0,1,.63183-3.1958,8.11645,8.11645,0,0,1,1.75586-2.63379,9.42671,9.42671,0,0,1,2.73926-1.791,8.24214,8.24214,0,0,1,3.30127-.667h7.51514a8.17757,8.17757,0,0,1,3.33642.667,9.59619,9.59619,0,0,1,2.7041,1.791,7.87881,7.87881,0,0,1,1.86084,2.70411,8.66947,8.66947,0,0,1,.66748,3.40673V74.412h-1.89648v-8.7793a6.36443,6.36443,0,0,0-.52686-2.59912,7.85767,7.85767,0,0,0-1.43945-2.17724,8.31311,8.31311,0,0,0-2.10742-1.40479,6.03612,6.03612,0,0,0-2.59863-.56152,6.84061,6.84061,0,0,0-2.59864.59668,7.962,7.962,0,0,0-2.03711,1.36963,9.64653,9.64653,0,0,0-1.40429,2.17724,6.01728,6.01728,0,0,0-.562,2.59912v5.26758a6.01049,6.01049,0,0,0,.562,2.59864,8.24052,8.24052,0,0,0,1.40429,2.10693,9.65185,9.65185,0,0,0,2.03711,1.43994,5.15023,5.15023,0,0,0,2.458.59717,8.3861,8.3861,0,0,1,6.18115,2.458A7.97391,7.97391,0,0,1,411.42768,82.77a8.24265,8.24265,0,0,1,.66748,3.30127V98.01116a8.666,8.666,0,0,1-.66748,3.40674,7.874,7.874,0,0,1-1.86084,2.7041,9.55464,9.55464,0,0,1-2.7041,1.791,8.17773,8.17773,0,0,1-3.33642.667h-7.51514a8.24232,8.24232,0,0,1-3.30127-.667,9.38724,9.38724,0,0,1-2.73926-1.791,8.7644,8.7644,0,0,1-2.52832-6.11084V89.16155Z"/>
    </g>
    <path class="cls-2" d="M452.90752,84.18479s-.3994,0-.64724.00241c-2.82688.02692-5.65415.01287-8.48129.01287-.694,0-1.53027-.00537-1.53027-.00537l-.0063,2.12311s.26006.00637.495.00541a17.48465,17.48465,0,0,1,1.89751.04432c1.12826.11877,1.4992.56213,1.44733,1.69819a19.474,19.474,0,0,1-1.94479,6.58751,2.21671,2.21671,0,0,1-.23282.408s-.163-.29914-.23124-.4412c-.28349-.58989-.56564-1.18169-.88036-1.75516a17.215,17.215,0,0,0-4.80877-5.95921,26.66234,26.66234,0,0,0-2.8231-1.49106A11.82277,11.82277,0,0,0,438.092,84.118a6.35726,6.35726,0,0,0,.15033-10.529,8.86406,8.86406,0,0,0-11.21419,1.197,6.07594,6.07594,0,0,0-.73086,7.16885,7.13176,7.13176,0,0,0,3.29952,2.71181c.155.07049.56809.26759.56809.26759s-.43241.229-.5821.28516a17.03511,17.03511,0,0,0-4.40988,2.33888c-5.09571,3.87874-5.30815,10.92005-.3861,14.8899,2.94393,2.37442,6.39534,2.87737,10.03867,2.39444a12.99352,12.99352,0,0,0,6.765-3.33385c.3497-.29973.65195-.55766.65195-.55766s.24361.25643.55983.64938a7.9273,7.9273,0,0,0,6.79555,3.39252,6.41665,6.41665,0,0,0,5.91794-8.07564,4.12008,4.12008,0,0,0-3.81112-3.11093,1.94259,1.94259,0,0,0-1.99744,1.31972,2.09957,2.09957,0,0,0,.7622,2.41154,6.1853,6.1853,0,0,0,1.15771.68965,2.217,2.217,0,0,1,.419,3.51436,3.14258,3.14258,0,0,1-4.04383.07292,10.8994,10.8994,0,0,1-2.858-3.73973c-.07746-.15972-.17319-.44823-.17319-.44823s.1247-.254.202-.37876a25.23223,25.23223,0,0,0,3.27073-8.76569c.3112-1.66063.922-2.12269,2.58953-2.15921.15826-.00347.31664-.00192.47494-.00212.73425-.00088,1.428-.02229,1.428-.02229ZM429.002,78.62837a4.31515,4.31515,0,0,1,4.47948-4.29734,4.36286,4.36286,0,0,1,4.0979,3.75116,4.368,4.368,0,0,1-4.34432,5.6021C431.006,83.8285,428.74776,81.63327,429.002,78.62837Zm11.78136,20.66469c-2.32944,2.0413-4.88846,3.50737-8.13471,3.17337-3.95656-.4071-7.12493-3.981-7.13223-8.71155a7.86492,7.86492,0,0,1,3.99621-6.10916c.75848-.483,1.59285-.84559,2.38075-1.28438.16073-.0895.45262-.21648.45262-.21648s.34442.12739.54412.232a10.02773,10.02773,0,0,1,4.09945,4.726q1.89425,3.70486,3.777,7.41561c.0781.15331.24606.4725.24606.4725A1.2475,1.2475,0,0,1,440.78333,99.29306Z"/>
    <g>
      <path class="cls-1" d="M71.34772,45.09766l-.43164-14.45874A51.10185,51.10185,0,0,0,56.0069,30.167a44.69131,44.69131,0,0,0,5.96972,18.49878Z"/>
      <path class="cls-1" d="M74.35065,45.15137l7.55029,4.21753,8.8081-4.404a26.3,26.3,0,0,0-16.77-13.60254Z"/>
      <path class="cls-1" d="M80.25445,51.8855l-7.41894-4.14428L63.6651,51.23291A31.00125,31.00125,0,0,0,79.24762,62.63038Z"/>
      <path class="cls-1" d="M91.94781,47.7,83.253,52.04737l-1.07178,11.425a44.32331,44.32331,0,0,0,12.34326,1.04321A40.31957,40.31957,0,0,0,91.94781,47.7Z"/>
    </g>
    <g>
      <path class="cls-3" d="M59.61627,163.26807l12.25879-10.40381,2.05957-11.22119-5.44287-3.60547-11.92334,3.24463L55.35211,160.065a49.17959,49.17959,0,0,1,4.415,3.38086Z"/>
      <polygon class="cls-3" points="76.918 142.008 74.87 153.167 82.189 160.628 94.458 155.359 94.458 143.906 81.592 140.871 76.918 142.008"/>
      <path class="cls-3" d="M79.96832,162.64893l-6.8081-6.94043-11.24707,9.54517c2.68408,2.20239,5.05957,3.65551,9.17382,3.262,1.63086-.156,3.72657-.46729,5.98975-.85437Z"/>
      <path class="cls-3" d="M53.61383,140.48194l-3.76221-2.5083-11.63818,3.647c1.8125,2.60742,8.27978,11.62134,14.26318,16.41577Z"/>
      <path class="cls-3" d="M82.88678,163.59327l-1.94287,3.36767c6.73291-1.2771,13.51367-2.823,13.51367-2.823V158.624Z"/>
    </g>
    <g>
      <polygon class="cls-4" points="72.813 114.765 67.231 118.311 70.125 135.521 75.702 139.216 80.304 138.096 84.042 119.486 72.813 114.765"/>
      <polygon class="cls-4" points="67.049 135.321 64.291 118.918 59.113 118.223 52.296 122.744 51.629 135.554 55.852 138.368 67.049 135.321"/>
      <polygon class="cls-4" points="87.055 119.716 83.343 138.201 94.399 140.81 94.399 117.183 87.055 119.716"/>
      <path class="cls-4" d="M48.64313,135.209l.64892-12.478L38.2315,116.04981,29.897,118.75489c.64112,3.10644,2.94776,13.38012,6.67578,20.23657Z"/>
    </g>
    <g>
      <polygon class="cls-5" points="65.244 116.019 71.249 112.204 72.495 99.449 64.99 92.084 55.155 100.022 59.902 115.302 65.244 116.019"/>
      <polygon class="cls-5" points="56.988 116.033 52.229 100.714 47.629 99.4 41.465 101.523 40.024 113.628 50.8 120.137 56.988 116.033"/>
      <polygon class="cls-5" points="75.461 99.937 74.271 112.124 85.807 116.973 94.337 114.031 94.337 102.121 86.254 96.483 75.461 99.937"/>
      <path class="cls-5" d="M37.044,113.28125,38.48,101.221,30.42291,96.6167A57.97392,57.97392,0,0,0,29.62115,115.69Z"/>
    </g>
    <g>
      <polygon class="cls-6" points="49.137 96.711 53.084 97.838 63.61 89.342 63.812 83.073 58.744 79.374 49.861 80.201 49.137 96.711"/>
      <polygon class="cls-6" points="66.809 83.22 66.607 89.469 74.408 97.124 85.097 93.703 86.099 82.357 78.773 76.467 66.809 83.22"/>
      <polygon class="cls-6" points="89.128 82.16 88.074 94.095 94.337 98.463 94.337 78.697 89.128 82.16"/>
      <path class="cls-6" d="M40.24127,98.772l5.89209-2.0293.74854-17.073L38.76959,74.959c-1.75732,3.28149-6.09228,11.79956-7.6084,18.62451Z"/>
    </g>
    <g>
      <path class="cls-1" d="M61.07721,77.36231,65.441,80.54688l11.979-6.761V65.99073a56.38011,56.38011,0,0,0-9.63086-2.12549Z"/>
      <path class="cls-1" d="M80.42,73.94288l7.084,5.69482,6.8955-4.58521V73.45313A94.1569,94.1569,0,0,0,80.42,66.99366Z"/>
      <path class="cls-1" d="M48.75885,77.29l9.44043-.87793,6.38232-12.835c-14.352-.769-21.77539,6.08716-24.17138,8.86524Z"/>
    </g>
    <rect class="cls-7" width="660.47244" height="198.4252"/>
  </g>
</svg>
